<svg xmlns="http://www.w3.org/2000/svg" width="341.188" height="64.593" viewBox="0 0 341.188 64.593">
  <g id="GL_Logo_white" data-name="GL Logo_white" transform="translate(-9 -43.003)">
    <g id="_2649952154672" transform="translate(9 43.003)">
      <path id="Path_1" data-name="Path 1" d="M60.674,34.218c.3-.389.6-.8.883-1.187,3.9-5.484,4.909-11.162,3.811-15.912a15.026,15.026,0,0,0-3.9-7.146,15.527,15.527,0,0,0-7.3-4.145c-5.856-1.511-13.457-.151-21.66,5.743L31.93,12l-.366-.626A9.434,9.434,0,0,0,27.473,7.9,21.622,21.622,0,0,0,18.28,5.913,18.566,18.566,0,0,0,9.129,8.093,9.733,9.733,0,0,0,5.21,12.152c-8.1,16.56,3.488,24.181,15.05,31.781l2.368,1.555c4.328,2.72,8.4,5.506,11.605,9.565A20.31,20.31,0,0,1,37.1,59.544l.022.065-1.184.561a24.51,24.51,0,0,0-2.842-4.4c-2.907-3.454-7-6.369-11.282-9.219l-1.83-1.123a77.622,77.622,0,0,1-11.454-8.14,25.106,25.106,0,0,1-8.16-13.84A24.056,24.056,0,0,1,3.014,7.791,12.053,12.053,0,0,1,7.88,2.8,20.217,20.217,0,0,1,18.064.342,22.486,22.486,0,0,1,28.076,2.631a11.66,11.66,0,0,1,4.349,3.584C40.822.385,48.466-.953,54.494.6a17.232,17.232,0,0,1,8.289,4.923,18.57,18.57,0,0,1,4.435,8.507c1.378,6,.151,13.127-4.586,19.755-.3.41-.6.82-.926,1.252l-1.184-.41.151-.41Z" transform="translate(0 -0.003)" fill="#fd6a00" fill-rule="evenodd"/>
      <path id="Path_2" data-name="Path 2" d="M32.547,34.686V29.979H44.6v11.1A15.274,15.274,0,0,1,39.5,44.1a18.191,18.191,0,0,1-6.761,1.317,15.128,15.128,0,0,1-7.6-1.835A11.718,11.718,0,0,1,20.3,38.313a17.128,17.128,0,0,1-1.636-7.427,16.124,16.124,0,0,1,1.809-7.729,12.39,12.39,0,0,1,5.318-5.2,14.291,14.291,0,0,1,6.675-1.4,13.37,13.37,0,0,1,8.053,2.181,9.951,9.951,0,0,1,3.746,6.045l-5.6,1.058a5.627,5.627,0,0,0-2.2-3.26,6.761,6.761,0,0,0-4.048-1.187A7.563,7.563,0,0,0,26.6,23.74C25.162,25.294,24.43,27.6,24.43,30.67c0,3.325.732,5.786,2.218,7.427A7.256,7.256,0,0,0,32.4,40.58a9.719,9.719,0,0,0,3.51-.669,13.089,13.089,0,0,0,3.036-1.684V34.686H32.547Z" transform="translate(21.516 19.176)" fill="#fefefe"/>
      <path id="Path_3" data-name="Path 3" d="M45.547,34.39l5.318.885a8.608,8.608,0,0,1-3.187,4.448,9.6,9.6,0,0,1-5.533,1.533c-3.51,0-6.093-1.166-7.773-3.454a11.6,11.6,0,0,1-2-6.952c0-3.347.883-5.981,2.627-7.859a8.594,8.594,0,0,1,6.588-2.85,8.926,8.926,0,0,1,7.084,2.979c1.722,1.986,2.562,5.031,2.5,9.111H37.86a5.416,5.416,0,0,0,1.27,3.692,4,4,0,0,0,3.057,1.317,3.173,3.173,0,0,0,2.11-.669,4.038,4.038,0,0,0,1.249-2.181h0Zm.323-5.419a5.207,5.207,0,0,0-1.163-3.541,3.6,3.6,0,0,0-2.756-1.187,3.7,3.7,0,0,0-2.885,1.252,5.071,5.071,0,0,0-1.12,3.476H45.87Z" transform="translate(37.325 23.337)" fill="#fefefe"/>
      <path id="Path_4" data-name="Path 4" d="M61.457,40.737H56.139V30.482a15.156,15.156,0,0,0-.344-4.21,2.765,2.765,0,0,0-1.12-1.511,3.174,3.174,0,0,0-1.852-.518,4.028,4.028,0,0,0-2.5.756A3.837,3.837,0,0,0,48.8,27.006a17.848,17.848,0,0,0-.409,4.62v9.111H43.07V20.572H48V23.53a8.109,8.109,0,0,1,6.675-3.39,7.919,7.919,0,0,1,3.23.648,5.321,5.321,0,0,1,2.2,1.619,5.837,5.837,0,0,1,1.055,2.245,15.327,15.327,0,0,1,.3,3.584v12.5Z" transform="translate(49.663 23.337)" fill="#fefefe"/>
      <path id="Path_5" data-name="Path 5" d="M66.577,34.39l5.275.885a8.523,8.523,0,0,1-3.208,4.448,9.534,9.534,0,0,1-5.512,1.533c-3.488,0-6.093-1.166-7.773-3.454A11.44,11.44,0,0,1,53.4,30.849c0-3.347.84-5.981,2.562-7.859a8.672,8.672,0,0,1,6.61-2.85,8.926,8.926,0,0,1,7.084,2.979c1.722,1.986,2.541,5.031,2.5,9.111H58.847a5.321,5.321,0,0,0,1.292,3.692,3.927,3.927,0,0,0,3.036,1.317,3.135,3.135,0,0,0,2.11-.669,4.358,4.358,0,0,0,1.292-2.181h0Zm.28-5.419a5.207,5.207,0,0,0-1.163-3.541,3.6,3.6,0,0,0-2.756-1.187,3.67,3.67,0,0,0-2.885,1.252,5.071,5.071,0,0,0-1.12,3.476h7.923Z" transform="translate(61.575 23.337)" fill="#fefefe"/>
      <path id="Path_6" data-name="Path 6" d="M69.317,40.737h-5.3V20.572h4.931v2.872a7.492,7.492,0,0,1,2.282-2.656,4.143,4.143,0,0,1,2.282-.648,7.113,7.113,0,0,1,3.531.993L75.41,25.8a4.957,4.957,0,0,0-2.541-.864A2.885,2.885,0,0,0,71,25.559a4.086,4.086,0,0,0-1.227,2.2,31.521,31.521,0,0,0-.452,6.779v6.2Z" transform="translate(73.82 23.337)" fill="#fefefe"/>
      <path id="Path_7" data-name="Path 7" d="M75.82,26.79l-4.78-.842a7.638,7.638,0,0,1,2.777-4.4,10.307,10.307,0,0,1,5.9-1.4,13.214,13.214,0,0,1,5.318.842,5.424,5.424,0,0,1,2.455,2.159,10.946,10.946,0,0,1,.711,4.772l-.086,6.218a21.307,21.307,0,0,0,.258,3.908,9.9,9.9,0,0,0,.947,2.7H84.044c-.129-.345-.3-.842-.517-1.555-.086-.324-.129-.518-.172-.626a8.71,8.71,0,0,1-2.907,2.008,7.857,7.857,0,0,1-3.316.669,6.8,6.8,0,0,1-4.866-1.662A5.6,5.6,0,0,1,70.48,35.3a5.737,5.737,0,0,1,.818-3.066A5.119,5.119,0,0,1,73.58,30.2a17.293,17.293,0,0,1,4.242-1.231,28.105,28.105,0,0,0,5.124-1.317v-.54a2.934,2.934,0,0,0-.732-2.245,4.633,4.633,0,0,0-2.864-.626,4,4,0,0,0-2.239.54A4.213,4.213,0,0,0,75.82,26.79Zm7.127,4.318a25.688,25.688,0,0,1-3.23.8,9.415,9.415,0,0,0-2.864.95A2.21,2.21,0,0,0,75.8,34.735a2.591,2.591,0,0,0,.84,1.922,2.754,2.754,0,0,0,2.11.82,4.571,4.571,0,0,0,2.734-.95,3.074,3.074,0,0,0,1.27-1.749,11.366,11.366,0,0,0,.194-2.591v-1.08h0Z" transform="translate(81.269 23.337)" fill="#fefefe"/>
      <path id="Path_8" data-name="Path 8" d="M91.51,24.176V28.43H87.871v8.14a17.939,17.939,0,0,0,.108,2.915,1.159,1.159,0,0,0,.474.691,1.429,1.429,0,0,0,.883.259,6.605,6.605,0,0,0,2.175-.54l.431,4.167a10.784,10.784,0,0,1-4.2.8,6.564,6.564,0,0,1-2.584-.475,4.258,4.258,0,0,1-1.7-1.274,5.539,5.539,0,0,1-.732-2.094,26.636,26.636,0,0,1-.172-3.757V28.43H80.12V24.176h2.433V20.182l5.318-3.152v7.146H91.51Z" transform="translate(92.385 19.733)" fill="#fefefe"/>
      <path id="Path_9" data-name="Path 9" d="M87.14,21.723V16.8h5.318v4.923Zm0,22.886V24.443h5.318V44.609Z" transform="translate(100.48 19.466)" fill="#fefefe"/>
      <path id="Path_10" data-name="Path 10" d="M91.57,30.417a10.85,10.85,0,0,1,1.292-5.16,9,9,0,0,1,3.7-3.8,10.819,10.819,0,0,1,5.34-1.317,9.96,9.96,0,0,1,7.471,2.979,10.338,10.338,0,0,1,2.907,7.535,10.368,10.368,0,0,1-2.928,7.578,9.92,9.92,0,0,1-7.385,3.023A11.939,11.939,0,0,1,96.673,40a8.6,8.6,0,0,1-3.811-3.67,12.25,12.25,0,0,1-1.292-5.916h0Zm5.447.281a6.678,6.678,0,0,0,1.421,4.6,4.606,4.606,0,0,0,6.976,0,6.761,6.761,0,0,0,1.421-4.642,6.731,6.731,0,0,0-1.421-4.577,4.648,4.648,0,0,0-6.976,0A6.852,6.852,0,0,0,97.017,30.7Z" transform="translate(105.588 23.337)" fill="#fefefe"/>
      <path id="Path_11" data-name="Path 11" d="M121.487,40.737h-5.318V30.482a15.156,15.156,0,0,0-.345-4.21,2.986,2.986,0,0,0-1.12-1.511,3.222,3.222,0,0,0-1.852-.518,4.028,4.028,0,0,0-2.5.756,3.632,3.632,0,0,0-1.529,2.008,16.073,16.073,0,0,0-.409,4.62v9.111H103.1V20.572h4.931V23.53a8.3,8.3,0,0,1,9.9-2.742,5.321,5.321,0,0,1,2.2,1.619,5.837,5.837,0,0,1,1.055,2.245,15.328,15.328,0,0,1,.3,3.584v12.5h0Z" transform="translate(118.883 23.337)" fill="#fefefe"/>
      <path id="Path_12" data-name="Path 12" d="M114.23,44.493V16.9h5.6V39.786h13.909v4.707Z" transform="translate(131.717 19.582)" fill="#fd6a00"/>
      <path id="Path_13" data-name="Path 13" d="M124.56,30.417a10.85,10.85,0,0,1,1.292-5.16,9,9,0,0,1,3.7-3.8,10.819,10.819,0,0,1,5.34-1.317,10.009,10.009,0,0,1,7.493,2.979,10.338,10.338,0,0,1,2.907,7.535,10.3,10.3,0,0,1-2.95,7.578,9.916,9.916,0,0,1-7.428,3.023A11.9,11.9,0,0,1,129.663,40a8.708,8.708,0,0,1-3.811-3.67,12.249,12.249,0,0,1-1.292-5.916h0Zm5.469.281a6.783,6.783,0,0,0,1.4,4.6,4.63,4.63,0,0,0,7,0,6.868,6.868,0,0,0,1.4-4.642,6.838,6.838,0,0,0-1.4-4.577,4.671,4.671,0,0,0-7,0A6.961,6.961,0,0,0,130.029,30.7Z" transform="translate(143.628 23.337)" fill="#fd6a00"/>
      <path id="Path_14" data-name="Path 14" d="M143.036,40.506l-8.1-20.166h5.576l3.789,10.277,1.077,3.455c.3-.864.474-1.447.56-1.706.172-.6.345-1.144.56-1.749l3.854-10.277H155.8l-7.988,20.166h-4.78Z" transform="translate(155.597 23.569)" fill="#fd6a00"/>
      <path id="Path_15" data-name="Path 15" d="M158.6,34.39l5.318.885a8.673,8.673,0,0,1-3.23,4.448,9.486,9.486,0,0,1-5.512,1.533c-3.51,0-6.093-1.166-7.751-3.454a11.454,11.454,0,0,1-2-6.952c0-3.347.883-5.981,2.605-7.859a8.576,8.576,0,0,1,6.61-2.85,8.926,8.926,0,0,1,7.084,2.979c1.723,1.986,2.541,5.031,2.455,9.111H150.889a5.424,5.424,0,0,0,1.292,3.692,3.991,3.991,0,0,0,3.036,1.317,3.077,3.077,0,0,0,2.089-.669A4.075,4.075,0,0,0,158.6,34.39h0Zm.323-5.419a5.217,5.217,0,0,0-1.206-3.541,3.54,3.54,0,0,0-2.756-1.187,3.687,3.687,0,0,0-2.864,1.252,5.063,5.063,0,0,0-1.1,3.476h7.923Z" transform="translate(167.681 23.337)" fill="#fd6a00"/>
      <path id="Path_16" data-name="Path 16" d="M158.82,13.13a4.989,4.989,0,0,1,2.471.656,4.511,4.511,0,0,1,1.853,1.853,5.025,5.025,0,0,1,.019,5,4.7,4.7,0,0,1-1.853,1.834,5.089,5.089,0,0,1-5,0,4.783,4.783,0,0,1-1.834-1.834,5.078,5.078,0,0,1-.656-2.51,5.008,5.008,0,0,1,.656-2.49,4.671,4.671,0,0,1,1.873-1.853,4.937,4.937,0,0,1,2.471-.656h0Zm0,1a4,4,0,0,0-3.475,1.969,4.063,4.063,0,0,0-.56,2.027,4.227,4.227,0,0,0,2.027,3.514,4.379,4.379,0,0,0,2.008.521,4.318,4.318,0,0,0,2.008-.521,4.037,4.037,0,0,0,2.008-3.514,4.041,4.041,0,0,0-.54-2.027,3.927,3.927,0,0,0-1.506-1.467,4.039,4.039,0,0,0-1.969-.5h0Zm-2.259,6.68V15.5h1.081c.985,0,1.564.019,1.68.019a2.442,2.442,0,0,1,.83.212,1.773,1.773,0,0,1,.5.5,1.53,1.53,0,0,1,.193.772,1.427,1.427,0,0,1-.367.965,1.739,1.739,0,0,1-1.062.521,1.077,1.077,0,0,1,.367.193,2.285,2.285,0,0,1,.367.425c.039.039.174.251.405.618l.6,1.081h-1.332l-.425-.869a3.981,3.981,0,0,0-.734-1.1,1.312,1.312,0,0,0-.734-.212h-.29v2.181h-1.081Zm1.081-3.012h.444a4.4,4.4,0,0,0,1.158-.1.576.576,0,0,0,.328-.232.658.658,0,0,0,.135-.425.577.577,0,0,0-.135-.367.515.515,0,0,0-.367-.251,4.756,4.756,0,0,0-1.12-.058h-.444V17.8Z" transform="translate(177.367 17.016)" fill="#fff"/>
    </g>
  </g>
</svg>
